<svg xmlns="http://www.w3.org/2000/svg" viewBox="0 0 64 64">
  <circle cx="32" cy="32" r="30" fill="#8fd3ff"/>
  <clipPath id="clip-a"><circle cx="32" cy="32" r="30"/></clipPath>
  <g clip-path="url(#clip-a)">
    <rect width="64" height="64" fill="#8fd3ff"/>
    <path d="M0 36 H64 V64 H0z" fill="#e8c15c"/>
    <path d="M0 42 C10 35 21 49 32 42 C43 35 54 49 64 42 L64 64 L0 64z" fill="#0676a6"/>
    <path d="M-10 36 L32 8 L74 36z" fill="#7a4a24"/>
    <path d="M20 16 L32 8 L44 16 L39 20 L32 18 L25 20z" fill="#ffffff"/>
    <path d="M-10 36 L20 16 L25 20 L32 18 L39 20 L44 16 L74 36z" fill="#8b5529"/>
  </g>
  <circle cx="32" cy="32" r="30" fill="none" stroke="#0f172a" stroke-width="3"/>
</svg>
